<?xml version="1.0" encoding="UTF-8"?>
<svg version="1.1" xmlns="http://www.w3.org/2000/svg" width="656" height="672">
<path d="M0 0 C1.67544636 -0.00679667 1.67544636 -0.00679667 3.38474011 -0.01373065 C7.12935849 -0.02639584 10.87383181 -0.02475288 14.61846924 -0.02310181 C17.30260763 -0.02908575 19.98673466 -0.03583439 22.67086792 -0.04345703 C29.20663835 -0.06005517 35.7423727 -0.06556605 42.27816245 -0.06668179 C47.5925844 -0.0676329 52.90699447 -0.07174636 58.22141266 -0.07808304 C73.29779595 -0.09569284 88.3741508 -0.10492241 103.45054445 -0.10342209 C104.66917015 -0.10330222 104.66917015 -0.10330222 105.91241455 -0.10317993 C106.72582688 -0.10309817 107.53923922 -0.10301641 108.37730041 -0.10293217 C121.5554599 -0.10211952 134.73350502 -0.12125249 147.91163144 -0.14945666 C161.45168641 -0.17820612 174.99168564 -0.1919958 188.5317719 -0.19026911 C196.1299213 -0.18960588 203.72795083 -0.19506858 211.32607269 -0.21662521 C217.79618591 -0.23486427 224.26612492 -0.23916216 230.73625275 -0.22560637 C234.03480765 -0.21909006 237.33296037 -0.22109746 240.63149643 -0.23631287 C244.21442606 -0.25176758 247.79648344 -0.24245428 251.37939453 -0.22705078 C252.41229323 -0.23733791 253.44519193 -0.24762503 254.50939059 -0.25822389 C265.23743 -0.15656929 274.34793838 3.61360586 281.94366455 11.26742554 C288.44671621 20.05420412 290.24258528 27.72315708 290.21109009 38.47561646 C290.2156212 39.6089149 290.22015231 40.74221335 290.22482073 41.90985417 C290.2374873 45.70975007 290.23584287 49.50950305 290.23419189 53.30941772 C290.23908898 56.03296448 290.24692436 58.7565012 290.25454712 61.4800415 C290.27114609 68.11206573 290.27665618 74.74405439 290.27777188 81.37609765 C290.27872295 86.76870413 290.2828362 92.1612989 290.28917313 97.55390167 C290.30678313 112.85163499 290.31601246 128.14934027 290.31451218 143.4470838 C290.31443227 144.27144892 290.31435235 145.09581403 290.31427002 145.94515991 C290.31418826 146.77053471 290.3141065 147.5959095 290.31402226 148.44629565 C290.3132096 161.81845022 290.33234279 175.19049208 290.36054675 188.56261405 C290.3892951 202.30155109 290.40308595 216.04043319 290.4013592 229.77940106 C290.40069593 237.48933246 290.40616027 245.19914573 290.4277153 252.90904999 C290.44595289 259.47431672 290.45025344 266.03941178 290.43669645 272.60469291 C290.43017932 275.95190887 290.43218912 279.29852784 290.44740295 282.64575577 C290.46285476 286.28122995 290.45354623 289.91584418 290.43814087 293.55130005 C290.448428 294.59976254 290.45871512 295.64822504 290.46931398 296.72845912 C290.36862183 307.50746729 286.63889713 316.63060079 278.94366455 324.26742554 C270.21255336 330.72927804 262.57475375 332.56662344 251.8873291 332.53485107 C250.21188275 332.54164774 250.21188275 332.54164774 248.50258899 332.54858172 C244.75797062 332.56124691 241.01349729 332.55960395 237.26885986 332.55795288 C234.58472147 332.56393683 231.90059444 332.57068547 229.21646118 332.57830811 C222.68069075 332.59490625 216.1449564 332.60041713 209.60916665 332.60153286 C204.2947447 332.60248397 198.98033463 332.60659743 193.66591644 332.61293411 C178.58953315 332.63054391 163.51317831 332.63977349 148.43678465 332.63827316 C147.62436752 332.63819325 146.81195039 332.63811334 145.97491455 332.63803101 C145.16150222 332.63794924 144.34808988 332.63786748 143.51002869 332.63778324 C130.3318692 332.6369706 117.15382408 332.65610356 103.97569767 332.68430774 C90.4356427 332.71305719 76.89564346 332.72684687 63.3555572 332.72512019 C55.7574078 332.72445696 48.15937827 332.72991965 40.56125641 332.75147629 C34.09114319 332.76971534 27.62120418 332.77401324 21.15107635 332.76045744 C17.85252145 332.75394114 14.55436873 332.75594853 11.25583267 332.77116394 C7.67290304 332.78661866 4.09084566 332.77730535 0.50793457 332.76190186 C-0.52496413 332.77218898 -1.55786283 332.78247611 -2.62206149 332.79307497 C-13.3501009 332.69142036 -22.46060928 328.92124521 -30.05633545 321.26742554 C-36.55938711 312.48064695 -38.35525618 304.81169399 -38.32376099 294.05923462 C-38.3282921 292.92593617 -38.33282321 291.79263772 -38.33749163 290.6249969 C-38.3501582 286.82510101 -38.34851377 283.02534803 -38.34686279 279.22543335 C-38.35175988 276.50188659 -38.35959526 273.77834988 -38.36721802 271.05480957 C-38.38381699 264.42278535 -38.38932708 257.79079668 -38.39044277 251.15875342 C-38.39139385 245.76614695 -38.3955071 240.37355218 -38.40184402 234.9809494 C-38.41945403 219.68321608 -38.42868336 204.3855108 -38.42718308 189.08776727 C-38.42710316 188.26340216 -38.42702325 187.43903704 -38.42694092 186.58969116 C-38.42685916 185.76431637 -38.4267774 184.93894158 -38.42669316 184.08855543 C-38.4258805 170.71640086 -38.44501368 157.344359 -38.47321765 143.97223702 C-38.501966 130.23329999 -38.51575685 116.49441788 -38.5140301 102.75545001 C-38.51336683 95.04551861 -38.51883117 87.33570535 -38.5403862 79.62580109 C-38.55862379 73.06053436 -38.56292434 66.4954393 -38.54936735 59.93015817 C-38.54285022 56.58294221 -38.54486002 53.23632324 -38.56007385 49.88909531 C-38.57552565 46.25362112 -38.56621713 42.6190069 -38.55081177 38.98355103 C-38.56109889 37.93508853 -38.57138602 36.88662604 -38.58198488 35.80639195 C-38.48129273 25.02738378 -34.75156803 15.90425028 -27.05633545 8.26742554 C-18.32522426 1.80557304 -10.68742465 -0.03177236 0 0 Z " fill="#1C4550" transform="translate(202.05633544921875,167.73257446289063)"/>
<path d="M0 0 C0.90810763 -0.00367669 1.81621526 -0.00735338 2.75184131 -0.01114148 C5.81338729 -0.02220834 8.87489938 -0.02602723 11.9364624 -0.02983093 C14.1240398 -0.0360933 16.31161613 -0.0427399 18.49919128 -0.04974365 C24.45589361 -0.06717414 30.4125879 -0.07771093 36.36930943 -0.08594918 C40.08841912 -0.09109483 43.8075263 -0.09717075 47.52663422 -0.10346031 C59.15576321 -0.12251781 70.78488583 -0.13674795 82.41402745 -0.14507228 C83.75304874 -0.14604081 85.09207003 -0.14701506 86.43109131 -0.147995 C87.09529354 -0.14847874 87.75949577 -0.14896248 88.44382533 -0.14946087 C99.20323132 -0.15776099 109.96252613 -0.18309705 120.72188357 -0.21557567 C131.76672047 -0.24864437 142.81149797 -0.26632486 153.85638404 -0.26985329 C160.05832443 -0.27220729 166.26008914 -0.28121332 172.46198273 -0.30631447 C178.29618845 -0.32954541 184.13010219 -0.33384837 189.96434212 -0.32355309 C192.10653465 -0.32305641 194.2487413 -0.32941549 196.39089012 -0.34310913 C199.3142496 -0.36075201 202.23655263 -0.35375911 205.15991211 -0.34057617 C206.00875229 -0.35154542 206.85759247 -0.36251466 207.73215508 -0.37381631 C213.04417617 -0.3159353 216.17689451 0.53120328 220.33392334 4.14717102 C222.25338186 6.94160705 222.58542203 9.14639061 222.59461975 12.49809265 C222.60170456 13.36157822 222.60878937 14.22506378 222.61608887 15.11471558 C222.61361145 16.05403427 222.61113403 16.99335297 222.60858154 17.96113586 C222.61369247 18.95669998 222.61880341 19.9522641 222.62406921 20.97799683 C222.63797738 24.27142843 222.63700738 27.56465103 222.63470459 30.85810852 C222.63859108 33.14730406 222.64292565 35.43649887 222.64768982 37.72569275 C222.65515484 42.52571448 222.65485885 47.32566267 222.64959717 52.12568665 C222.64380473 58.27491961 222.66072695 64.42385116 222.68394184 70.57303429 C222.69867917 75.30167906 222.69955082 80.03025127 222.69643211 84.75891495 C222.69694541 87.02590659 222.70218463 89.29290229 222.71224403 91.55987167 C222.72458967 94.73158551 222.71782742 97.90271257 222.70623779 101.07441711 C222.71388153 102.00968735 222.72152527 102.94495758 222.72940063 103.90856934 C222.6880509 109.03210688 222.36833455 112.80905944 219.33392334 117.14717102 C214.85031839 120.72770936 210.78877731 120.57597975 205.30708313 120.5415802 C204.39641222 120.5476713 203.48574132 120.55376241 202.54747432 120.56003809 C199.49512559 120.57669081 196.44319298 120.571889 193.39080811 120.5670929 C191.20278489 120.57443186 189.01476555 120.58301758 186.82675171 120.59275818 C180.88258542 120.61500007 174.93855764 120.61790354 168.99435544 120.61601067 C164.03394236 120.6158911 159.07355877 120.62444958 154.11315387 120.63278818 C141.74303093 120.65313216 129.37297677 120.65416879 117.00284391 120.64698106 C106.26298339 120.64140502 95.52336137 120.66223448 84.78355659 120.69534153 C73.75216559 120.72908317 62.72089447 120.74377176 51.68945163 120.7396245 C45.49759699 120.73755464 39.3059799 120.74307323 33.11416817 120.76751709 C27.29215518 120.78974141 21.47063946 120.78794195 15.64862442 120.76758957 C13.51127297 120.764172 11.37388833 120.76930056 9.2365818 120.78357315 C6.31972054 120.80170829 3.40455651 120.7890589 0.48774719 120.76863098 C-0.35904663 120.78114883 -1.20584045 120.79366668 -2.07829469 120.80656385 C-6.24910024 120.74389327 -8.87267936 120.39892309 -12.17569065 117.73332977 C-15.26084299 114.52953177 -15.78902557 113.21116994 -15.81997681 108.92286682 C-15.82857727 108.03688812 -15.83717773 107.15090942 -15.84603882 106.23808289 C-15.85029877 105.26352142 -15.85455872 104.28895996 -15.85894775 103.28486633 C-15.86712524 102.26033356 -15.87530273 101.23580078 -15.88372803 100.18022156 C-15.90860712 96.77858571 -15.92510467 93.37699167 -15.93951416 89.97529602 C-15.94483784 88.81516747 -15.95016151 87.65503891 -15.95564651 86.45975494 C-15.98238923 80.31910868 -16.00176043 74.17848283 -16.01617432 68.03779602 C-16.03282328 61.69108765 -16.07760064 55.34489843 -16.12854576 48.99838638 C-16.1621829 44.12220149 -16.17374795 39.24614032 -16.1794014 34.36985016 C-16.18612377 32.03025598 -16.20137123 29.69067021 -16.22529221 27.35118866 C-16.25686891 24.07604542 -16.25699115 20.80230899 -16.24957275 17.52705383 C-16.26597809 16.56058929 -16.28238342 15.59412476 -16.29928589 14.59837341 C-16.25802941 10.14831764 -16.11166864 7.10285539 -13.25460815 3.56092834 C-8.98218477 -0.42302675 -5.59758419 -0.00120311 0 0 Z " fill="#010101" transform="translate(175.66607666015625,15.852828979492188)"/>
<path d="M0 0 C10.56 0 21.12 0 32 0 C33.051875 4.846875 34.10375 9.69375 35.1875 14.6875 C36.45086982 20.45999391 37.72338659 26.23042269 39 32 C39.22880859 33.03672852 39.45761719 34.07345703 39.69335938 35.14160156 C48.05192714 77.81407005 48.05192714 77.81407005 69.9375 114.1875 C73.03164869 116.01873086 75.29977555 116.88450683 78.93359375 116.57421875 C85.39841487 114.77775617 88.95510395 109.48909535 92.25683594 103.95263672 C109.50696542 72.86473961 115.12818662 34.35906689 122 0 C132.56 0 143.12 0 154 0 C154 0.66 154 1.32 154 2 C154.99 2 155.98 2 157 2 C159.07978362 37.39483609 149.96377005 73.50302008 143 108 C142.78603577 109.0650174 142.78603577 109.0650174 142.56774902 110.15155029 C139.32379493 126.28251763 135.63977007 142.21170433 131 158 C130.70367676 159.01239746 130.40735352 160.02479492 130.10205078 161.06787109 C108.89416371 232.98118852 108.89416371 232.98118852 86 258 C85.46375 258.65097656 84.9275 259.30195313 84.375 259.97265625 C78.67276182 266.45895218 70.26862011 270.91624419 61.84765625 272.6484375 C52.53571464 273.16236857 44.62172553 269.02104262 37.375 263.4375 C21.5021283 248.56631438 11.57367774 226.95262046 4 207 C4 206.34 4 205.68 4 205 C12.58 205 21.16 205 30 205 C34.24399565 215.60998913 34.24399565 215.60998913 36.12915039 220.90869141 C42.45842113 238.624111 42.45842113 238.624111 55 252 C60.3239149 252.42934798 63.78260672 252.56856355 68 249 C92.27795969 224.84222823 97.00576153 174.97786941 103 143 C103.19754883 141.95859863 103.39509766 140.91719727 103.59863281 139.84423828 C104.17606668 136.79310043 104.74637869 133.74075558 105.3125 130.6875 C105.48418701 129.76791504 105.65587402 128.84833008 105.83276367 127.90087891 C105.98720947 127.05058105 106.14165527 126.2002832 106.30078125 125.32421875 C106.43653564 124.58260498 106.57229004 123.84099121 106.7121582 123.0769043 C107.09151974 120.68910439 107.09151974 120.68910439 107 117 C106.443125 117.65226562 105.88625 118.30453125 105.3125 118.9765625 C97.55409636 127.86203153 90.56948216 134.62199457 78.55859375 136.3515625 C69.35804909 136.89869974 62.76503569 132.74143297 55.9375 126.9375 C29.59564279 101.86958596 18.22526139 61.8941802 7.625 28.25 C7.41367432 27.5824469 7.20234863 26.9148938 6.98461914 26.22711182 C6.37172024 24.28344449 5.76658847 22.33753018 5.1640625 20.390625 C4.64513428 18.7204834 4.64513428 18.7204834 4.11572266 17.01660156 C2.55381973 11.39375101 1.31222408 5.68630434 0 0 Z " fill="#BD8066" transform="translate(204,180)"/>
<path d="M0 0 C0.90810763 -0.00367669 1.81621526 -0.00735338 2.75184131 -0.01114148 C5.81338729 -0.02220834 8.87489938 -0.02602723 11.9364624 -0.02983093 C14.1240398 -0.0360933 16.31161613 -0.0427399 18.49919128 -0.04974365 C24.45589361 -0.06717414 30.4125879 -0.07771093 36.36930943 -0.08594918 C40.08841912 -0.09109483 43.8075263 -0.09717075 47.52663422 -0.10346031 C59.15576321 -0.12251781 70.78488583 -0.13674795 82.41402745 -0.14507228 C83.75304874 -0.14604081 85.09207003 -0.14701506 86.43109131 -0.147995 C87.09529354 -0.14847874 87.75949577 -0.14896248 88.44382533 -0.14946087 C99.20323132 -0.15776099 109.96252613 -0.18309705 120.72188357 -0.21557567 C131.76672047 -0.24864437 142.81149797 -0.26632486 153.85638404 -0.26985329 C160.05832443 -0.27220729 166.26008914 -0.28121332 172.46198273 -0.30631447 C178.29618845 -0.32954541 184.13010219 -0.33384837 189.96434212 -0.32355309 C192.10653465 -0.32305641 194.2487413 -0.32941549 196.39089012 -0.34310913 C199.3142496 -0.36075201 202.23655263 -0.35375911 205.15991211 -0.34057617 C206.00875229 -0.35154542 206.85759247 -0.36251466 207.73215508 -0.37381631 C213.04417617 -0.3159353 216.17689451 0.53120328 220.33392334 4.14717102 C222.25338186 6.94160705 222.58542203 9.14639061 222.59461975 12.49809265 C222.60170456 13.36157822 222.60878937 14.22506378 222.61608887 15.11471558 C222.61361145 16.05403427 222.61113403 16.99335297 222.60858154 17.96113586 C222.61369247 18.95669998 222.61880341 19.9522641 222.62406921 20.97799683 C222.63797738 24.27142843 222.63700738 27.56465103 222.63470459 30.85810852 C222.63859108 33.14730406 222.64292565 35.43649887 222.64768982 37.72569275 C222.65515484 42.52571448 222.65485885 47.32566267 222.64959717 52.12568665 C222.64380473 58.27491961 222.66072695 64.42385116 222.68394184 70.57303429 C222.69867917 75.30167906 222.69955082 80.03025127 222.69643211 84.75891495 C222.69694541 87.02590659 222.70218463 89.29290229 222.71224403 91.55987167 C222.72458967 94.73158551 222.71782742 97.90271257 222.70623779 101.07441711 C222.71388153 102.00968735 222.72152527 102.94495758 222.72940063 103.90856934 C222.6880509 109.03210688 222.36833455 112.80905944 219.33392334 117.14717102 C214.85031839 120.72770936 210.78877731 120.57597975 205.30708313 120.5415802 C204.39641222 120.5476713 203.48574132 120.55376241 202.54747432 120.56003809 C199.49512559 120.57669081 196.44319298 120.571889 193.39080811 120.5670929 C191.20278489 120.57443186 189.01476555 120.58301758 186.82675171 120.59275818 C180.88258542 120.61500007 174.93855764 120.61790354 168.99435544 120.61601067 C164.03394236 120.6158911 159.07355877 120.62444958 154.11315387 120.63278818 C141.74303093 120.65313216 129.37297677 120.65416879 117.00284391 120.64698106 C106.26298339 120.64140502 95.52336137 120.66223448 84.78355659 120.69534153 C73.75216559 120.72908317 62.72089447 120.74377176 51.68945163 120.7396245 C45.49759699 120.73755464 39.3059799 120.74307323 33.11416817 120.76751709 C27.29215518 120.78974141 21.47063946 120.78794195 15.64862442 120.76758957 C13.51127297 120.764172 11.37388833 120.76930056 9.2365818 120.78357315 C6.31972054 120.80170829 3.40455651 120.7890589 0.48774719 120.76863098 C-0.35904663 120.78114883 -1.20584045 120.79366668 -2.07829469 120.80656385 C-6.24910024 120.74389327 -8.87267936 120.39892309 -12.17569065 117.73332977 C-15.26084299 114.52953177 -15.78902557 113.21116994 -15.81997681 108.92286682 C-15.82857727 108.03688812 -15.83717773 107.15090942 -15.84603882 106.23808289 C-15.85029877 105.26352142 -15.85455872 104.28895996 -15.85894775 103.28486633 C-15.86712524 102.26033356 -15.87530273 101.23580078 -15.88372803 100.18022156 C-15.90860712 96.77858571 -15.92510467 93.37699167 -15.93951416 89.97529602 C-15.94483784 88.81516747 -15.95016151 87.65503891 -15.95564651 86.45975494 C-15.98238923 80.31910868 -16.00176043 74.17848283 -16.01617432 68.03779602 C-16.03282328 61.69108765 -16.07760064 55.34489843 -16.12854576 48.99838638 C-16.1621829 44.12220149 -16.17374795 39.24614032 -16.1794014 34.36985016 C-16.18612377 32.03025598 -16.20137123 29.69067021 -16.22529221 27.35118866 C-16.25686891 24.07604542 -16.25699115 20.80230899 -16.24957275 17.52705383 C-16.26597809 16.56058929 -16.28238342 15.59412476 -16.29928589 14.59837341 C-16.25802941 10.14831764 -16.11166864 7.10285539 -13.25460815 3.56092834 C-8.98218477 -0.42302675 -5.59758419 -0.00120311 0 0 Z M-11.66607666 9.14717102 C-12.39203727 11.304362 -12.39203727 11.304362 -12.28753662 13.54914856 C-12.29874542 14.39862564 -12.30995422 15.24810272 -12.32150269 16.12332153 C-12.30823944 17.04191452 -12.2949762 17.96050751 -12.28131104 18.90693665 C-12.28686005 19.88474594 -12.29240906 20.86255524 -12.29812622 21.86999512 C-12.3099254 25.09830412 -12.28564358 28.32521042 -12.25982666 31.55342102 C-12.25811558 33.79874101 -12.25818122 36.04406299 -12.25994873 38.28938293 C-12.25829532 42.99363839 -12.23959276 47.6974174 -12.20806885 52.40156555 C-12.16839163 58.43097672 -12.16402358 64.45976376 -12.17153168 70.4892807 C-12.1746015 75.12527685 -12.16248032 79.76113274 -12.145401 84.39709473 C-12.13837064 86.62024048 -12.13524651 88.84340213 -12.13609314 91.06655884 C-12.13429506 94.17379983 -12.11291157 97.28029363 -12.08599854 100.3874054 C-12.08892914 101.30599838 -12.09185974 102.22459137 -12.09487915 103.17102051 C-12.03088327 107.96080235 -11.83015198 111.28297428 -8.66607666 115.14717102 C-5.38598131 116.78721869 -1.75056108 116.29513065 1.85487366 116.29434204 C2.74735264 116.29801873 3.63983163 116.30169542 4.55935544 116.30548352 C7.56795736 116.31654969 10.57652478 116.32036914 13.58514404 116.32417297 C15.73493561 116.33043535 17.8847261 116.33708195 20.03451538 116.34408569 C25.88784801 116.36151511 31.74117246 116.3720525 37.59452462 116.38029122 C41.24863277 116.38543668 44.90273836 116.39151258 48.55684471 116.39780235 C59.98147413 116.41685883 71.40609706 116.43108966 82.83073932 116.43941432 C96.03407329 116.44919299 109.23723989 116.47552716 122.44051486 116.51591522 C132.63587951 116.54603595 142.83119606 116.56087931 153.02660435 116.56419533 C159.12064383 116.56655022 165.21450459 116.57556771 171.30849648 116.60065651 C177.04010366 116.62387182 182.77141363 116.62819678 188.50305557 116.61789513 C190.6085795 116.61739808 192.71411772 116.62376795 194.81959724 116.63745117 C197.69076512 116.65506883 200.56085464 116.64811385 203.43202209 116.63491821 C204.26821132 116.64588746 205.10440055 116.6568567 205.96592885 116.66815835 C209.95689747 116.62377432 211.8764699 116.43832282 215.32779217 114.24168682 C218.03356426 111.41670584 218.45884859 109.93926086 218.48109436 106.1439209 C218.48824966 105.30698196 218.49540497 104.47004303 218.5027771 103.60774231 C218.505466 102.68771423 218.50815491 101.76768616 218.51092529 100.81977844 C218.52078209 99.36835197 218.52078209 99.36835197 218.53083801 97.88760376 C218.55059696 94.67594837 218.56223902 91.46433978 218.57220459 88.25263977 C218.57628012 87.15745844 218.58035564 86.06227711 218.58455467 84.93390846 C218.60542588 79.13805453 218.61972341 73.34222435 218.62908936 67.54634094 C218.64015968 61.55384214 218.67456405 55.56171407 218.71426105 49.56934643 C218.74038058 44.96685079 218.74877703 40.36444412 218.75237083 35.76188087 C218.75724837 33.55265612 218.76889536 31.34343563 218.78740883 29.13428307 C218.81170198 26.04347049 218.81085307 22.95362559 218.80389404 19.86274719 C218.8167041 18.94879181 218.82951416 18.03483643 218.8427124 17.09318542 C218.80835082 12.90971908 218.6941975 10.72317957 216.42955017 7.10244751 C212.52979074 3.46386653 208.89439859 3.99627167 203.81297302 3.99327087 C202.92049403 3.98888862 202.02801505 3.98450637 201.10849124 3.97999132 C198.09989297 3.96657236 195.091324 3.96041754 192.08270264 3.95429993 C189.93291083 3.94640148 187.78312036 3.93813269 185.6333313 3.92951965 C178.55828116 3.90327252 171.48322502 3.88799057 164.40814209 3.87373352 C161.97576201 3.86837518 159.54338197 3.86299768 157.11100197 3.85760117 C146.99619275 3.83596961 136.88138515 3.81723123 126.76655865 3.80597878 C112.25336035 3.7897289 97.74042933 3.75652883 83.22733182 3.69957793 C73.03196856 3.66092908 62.83667694 3.64135214 52.64124233 3.63605821 C46.54715696 3.63239819 40.4533565 3.62030746 34.3593502 3.58795547 C28.62769818 3.55796356 22.89650478 3.55153142 17.16479111 3.56333923 C15.05925986 3.5635607 12.95370788 3.55519532 10.84824944 3.53768539 C7.97688399 3.51510259 5.10719691 3.52323813 2.23582458 3.53916931 C1.39963535 3.52528722 0.56344612 3.51140514 -0.29808217 3.49710238 C-5.73380297 3.57158035 -8.31179174 4.51603873 -11.66607666 9.14717102 Z " fill="#181818" transform="translate(175.66607666015625,15.852828979492188)"/>
<path d="M0 0 C3.97402338 0.9311826 6.10077695 3.09247918 8.4296875 6.30859375 C9.83151243 10.76894579 9.53271789 14.41571473 7.8671875 18.74609375 C5.11033818 23.07828553 5.11033818 23.07828553 2.1171875 24.49609375 C-0.99269408 25.02121447 -3.78062352 25.09883635 -6.8828125 24.49609375 C-10.6807725 21.56849958 -12.4594712 19.26120909 -13.19140625 14.48046875 C-13.44686799 10.05246518 -13.12360573 7.0663064 -10.4453125 3.43359375 C-7.22688545 0.15415386 -4.50446384 -0.37158035 0 0 Z " fill="#EDEDED" transform="translate(303.8828125,63.50390625)"/>
<path d="M0 0 C2.8100346 1.79363911 4.50940468 3.01880935 6 6 C6 8.31 6 10.62 6 13 C0.39 13 -5.22 13 -11 13 C-9.45957252 17.80304035 -9.45957252 17.80304035 -7 20 C-2.94738713 20.34490322 -1.45245824 20.30163882 2 18 C3.32 18 4.64 18 6 18 C4.63016497 21.16115776 4.0109362 21.9927092 1 24 C-2.41174974 24.60139317 -5.59197505 24.63594724 -9 24 C-12.2360288 21.68437668 -13.74834957 18.7549513 -15 15 C-15.53832527 9.29375217 -14.61757835 6.4444534 -11 2 C-7.31502204 -0.45665197 -4.28028214 -0.70086491 0 0 Z " fill="#F2F2F2" transform="translate(229,64)"/>
<path d="M0 0 C2.69928153 1.39489499 3.93478595 2.66304726 6 5 C6 5.99 6 6.98 6 8 C4.68 8 3.36 8 2 8 C1.38125 7.34 0.7625 6.68 0.125 6 C-1.89170814 3.70667828 -1.89170814 3.70667828 -5.0625 3.625 C-8.18542374 3.80232037 -8.18542374 3.80232037 -11 6 C-10.72965366 8.43717258 -10.72965366 8.43717258 -10 11 C-6.52897521 13.31401653 -3.37379094 14.07974194 0.625 15.12109375 C3.20111285 16.07442499 4.39210456 16.78399026 6 19 C6.67917919 22.07328583 6.55777456 24.90992891 6 28 C4.25 30.5625 4.25 30.5625 1 32 C-4.81063533 32.8346769 -9.36416946 33.16395635 -14.25 29.6875 C-16 27 -16 27 -16 24 C-14.68 24 -13.36 24 -12 24 C-11.566875 24.66 -11.13375 25.32 -10.6875 26 C-9.06191231 28.39317554 -9.06191231 28.39317554 -5.5625 28.375 C-2.41181332 28.04334877 -0.62255812 27.6784372 2 26 C2 24.35 2 22.7 2 21 C0.95199219 20.61328125 -0.09601563 20.2265625 -1.17578125 19.828125 C-2.55493518 19.30273303 -3.93382798 18.77665524 -5.3125 18.25 C-6.00279297 17.99734375 -6.69308594 17.7446875 -7.40429688 17.484375 C-11.3075475 15.97587234 -14.06669062 14.82217486 -16 11 C-16 6.92364568 -15.61344006 4.77174717 -13.0625 1.5625 C-8.66993673 -0.67860371 -4.83354129 -0.90966168 0 0 Z " fill="#EDEDED" transform="translate(203,56)"/>
<path d="M0 0 C3.01621663 2.43243277 3.00540526 4.04864734 3.4375 7.9375 C3.30559494 11.00572648 2.90001387 12.18458978 1.375 15 C-1 17 -1 17 -4 17.5625 C-7 17 -7 17 -9.375 15.625 C-11.89228651 11.5586141 -11.74814229 7.65082268 -11 3 C-8.16400241 -1.87791585 -5.11933774 -1.48926189 0 0 Z " fill="#050505" transform="translate(306,68)"/>
<path d="M0 0 C1.32 0 2.64 0 4 0 C4.33 0.66 4.66 1.32 5 2 C5.66 1.34 6.32 0.68 7 0 C13.91493384 -0.66918715 13.91493384 -0.66918715 17.2421875 1.3828125 C19.98647327 5.46874908 19.42470597 9.4523052 19.25 14.25 C19.23195313 15.18585938 19.21390625 16.12171875 19.1953125 17.0859375 C19.14825673 19.39167015 19.08253713 21.69530945 19 24 C18.01 24 17.02 24 16 24 C15.95101563 22.72382812 15.90203125 21.44765625 15.8515625 20.1328125 C15.77653809 18.46351928 15.70099012 16.79424954 15.625 15.125 C15.5940625 14.28324219 15.563125 13.44148438 15.53125 12.57421875 C15.49257813 11.76855469 15.45390625 10.96289062 15.4140625 10.1328125 C15.3826416 9.38918457 15.3512207 8.64555664 15.31884766 7.87939453 C15.14580449 5.75989026 15.14580449 5.75989026 13 4 C10 3.66666667 10 3.66666667 7 4 C4.64641749 6.35358251 4.72128096 6.92968394 4.5859375 10.1328125 C4.54726563 10.93847656 4.50859375 11.74414062 4.46875 12.57421875 C4.4378125 13.41597656 4.406875 14.25773437 4.375 15.125 C4.33632813 15.97449219 4.29765625 16.82398437 4.2578125 17.69921875 C4.16343506 19.79911684 4.08062414 21.89952891 4 24 C2.68 24 1.36 24 0 24 C0 16.08 0 8.16 0 0 Z " fill="#F6F6F6" transform="translate(318,64)"/>
<path d="M0 0 C3.17773484 0.74770231 4.97994669 2.07816562 7.125 4.5 C7.125 5.49 7.125 6.48 7.125 7.5 C5.805 7.5 4.485 7.5 3.125 7.5 C2.650625 7.005 2.17625 6.51 1.6875 6 C0.17805958 4.26176694 0.17805958 4.26176694 -2.375 4.125 C-5.35946877 4.57267032 -6.05493126 5.14646284 -7.875 7.5 C-8.27403439 9.67933331 -8.27403439 9.67933331 -8.125 12 C-8.10953125 12.7734375 -8.0940625 13.546875 -8.078125 14.34375 C-7.93971705 16.6822807 -7.93971705 16.6822807 -6.875 19.5 C-4.08636993 20.89431504 -1.95421132 20.75660094 1.125 20.5 C1.785 19.51 2.445 18.52 3.125 17.5 C4.445 17.5 5.765 17.5 7.125 17.5 C5.87523244 21.15316671 5.45401247 22.28065836 2.125 24.5 C-0.94078057 25.0454104 -3.8079232 25.03808365 -6.875 24.5 C-10.67296 21.57240583 -12.4516587 19.26511534 -13.18359375 14.484375 C-13.43905549 10.05637143 -13.11579323 7.07021265 -10.4375 3.4375 C-7.22128655 0.16031568 -4.50148112 -0.36498496 0 0 Z " fill="#EDEDED" transform="translate(252.875,63.5)"/>
<path d="M0 0 C0 10.56 0 21.12 0 32 C-1.32 32 -2.64 32 -4 32 C-4.33 23.09 -4.66 14.18 -5 5 C-7.31 6.32 -9.62 7.64 -12 9 C-11.875 6.75 -11.875 6.75 -11 4 C-6.9299556 0.57746266 -5.46063221 0 0 0 Z " fill="#E8E8E8" transform="translate(368,56)"/>
<path d="M0 0 C1.32 0 2.64 0 4 0 C4 1.98 4 3.96 4 6 C5.65 6 7.3 6 9 6 C9 6.99 9 7.98 9 9 C7.35 9 5.7 9 4 9 C4.05985162 11.62748631 4.14676224 14.24916995 4.25 16.875 C4.26417969 17.62136719 4.27835937 18.36773437 4.29296875 19.13671875 C4.35986341 21.57138381 4.35986341 21.57138381 5 25 C6.90628782 26.60337399 6.90628782 26.60337399 9 27 C9 27.99 9 28.98 9 30 C6.1875 30.25 6.1875 30.25 3 30 C0.95285346 28.21822431 0.09602214 26.78532748 -0.23510742 24.07714844 C-0.29552608 21.79398596 -0.26131863 19.53269914 -0.1875 17.25 C-0.17396484 16.45722656 -0.16042969 15.66445312 -0.14648438 14.84765625 C-0.11125223 12.89814436 -0.05744821 10.94898374 0 9 C-0.99 9 -1.98 9 -3 9 C-3 8.01 -3 7.02 -3 6 C-2.01 6 -1.02 6 0 6 C0 4.02 0 2.04 0 0 Z " fill="#ECECEC" transform="translate(267,58)"/>
<path d="M0 0 C0.99 0 1.98 0 3 0 C3 1.32 3 2.64 3 4 C3.66 4 4.32 4 5 4 C4.67 10.6 4.34 17.2 4 24 C2.68 24 1.36 24 0 24 C0 16.08 0 8.16 0 0 Z " fill="#EEEEEE" transform="translate(318,64)"/>
<path d="M0 0 C3.125 0.4375 3.125 0.4375 5.5 2.8125 C7.125 5.4375 7.125 5.4375 7.125 7.4375 C2.505 7.4375 -2.115 7.4375 -6.875 7.4375 C-4.15277778 0.63194444 -4.15277778 0.63194444 0 0 Z " fill="#080808" transform="translate(224.875,66.5625)"/>
<path d="M0 0 C0.99 0 1.98 0 3 0 C3 7.92 3 15.84 3 24 C2.01 24 1.02 24 0 24 C0 16.08 0 8.16 0 0 Z " fill="#FFFFFF" transform="translate(282,64)"/>
<path d="M0 0 C1.98 0.495 1.98 0.495 4 1 C3.67 2.32 3.34 3.64 3 5 C1.68 4.67 0.36 4.34 -1 4 C-0.67 2.68 -0.34 1.36 0 0 Z " fill="#EEEEEE" transform="translate(282,55)"/>
</svg>
