<?xml version="1.0" encoding="UTF-8"?>
<svg version="1.1" xmlns="http://www.w3.org/2000/svg" width="328" height="332">
<path d="M0 0 C108.24 0 216.48 0 328 0 C328 109.56 328 219.12 328 332 C219.76 332 111.52 332 0 332 C0 222.44 0 112.88 0 0 Z " fill="#1C4550" transform="translate(0,0)"/>
<path d="M0 0 C10.56 0 21.12 0 32 0 C33.051875 4.846875 34.10375 9.69375 35.1875 14.6875 C36.45086982 20.45999391 37.72338659 26.23042269 39 32 C39.22880859 33.03672852 39.45761719 34.07345703 39.69335938 35.14160156 C48.05192714 77.81407005 48.05192714 77.81407005 69.9375 114.1875 C73.03164869 116.01873086 75.29977555 116.88450683 78.93359375 116.57421875 C85.39841487 114.77775617 88.95510395 109.48909535 92.25683594 103.95263672 C109.50696542 72.86473961 115.12818662 34.35906689 122 0 C132.56 0 143.12 0 154 0 C154 0.66 154 1.32 154 2 C154.99 2 155.98 2 157 2 C159.07978362 37.39483609 149.96377005 73.50302008 143 108 C142.78603577 109.0650174 142.78603577 109.0650174 142.56774902 110.15155029 C136.35062847 141.06695959 127.88664066 171.3916364 117 201 C117.76183594 201.08636719 118.52367187 201.17273438 119.30859375 201.26171875 C128.31657315 202.48752369 135.92774738 204.87170345 142 212 C140.75453595 215.73639216 139.36595047 216.18756513 136 218 C135.45730469 217.57847656 134.91460937 217.15695313 134.35546875 216.72265625 C133.64003906 216.17480469 132.92460937 215.62695312 132.1875 215.0625 C131.47980469 214.51722656 130.77210938 213.97195312 130.04296875 213.41015625 C126.32334619 210.84269211 123.2054083 210.89026443 118.8125 210.9375 C117.72582031 210.94652344 116.63914062 210.95554688 115.51953125 210.96484375 C114.68808594 210.97644531 113.85664063 210.98804688 113 211 C112.48050781 212.19496094 111.96101563 213.38992187 111.42578125 214.62109375 C110.72230909 216.22698115 110.01781643 217.83242176 109.3125 219.4375 C108.950354 220.26338623 108.58820801 221.08927246 108.21508789 221.94018555 C106.01496482 226.89767877 103.69720036 231.63078411 100.71484375 236.17578125 C99.68391521 238.80662074 100.14036732 240.33884046 101 243 C104.5424134 248.46372236 108.64988768 252.21751233 115 254 C122.08099253 254.92865476 127.01361742 252.77471726 133 249 C133.55042969 248.44570313 134.10085937 247.89140625 134.66796875 247.3203125 C135.10753906 246.88460937 135.54710937 246.44890625 136 246 C139.0417096 246.28516028 140.39045802 247.26030535 143 249 C140.50112089 254.61641277 135.95907792 258.37872788 130.375 260.875 C122.00275115 263.58462317 113.07804211 262.84231915 105.15234375 259.20703125 C100.39615814 256.53976927 96.82701859 252.84330377 93 249 C92.36384766 249.85271484 92.36384766 249.85271484 91.71484375 250.72265625 C89.84765121 253.18078445 87.93770417 255.59709304 86 258 C85.4946875 258.63035156 84.989375 259.26070313 84.46875 259.91015625 C78.67495731 266.39861286 70.34282729 270.90097976 61.84765625 272.6484375 C52.53571464 273.16236857 44.62172553 269.02104262 37.375 263.4375 C21.5021283 248.56631438 11.57367774 226.95262046 4 207 C4 206.34 4 205.68 4 205 C12.58 205 21.16 205 30 205 C34.24399565 215.60998913 34.24399565 215.60998913 36.12915039 220.90869141 C42.45842113 238.624111 42.45842113 238.624111 55 252 C60.3239149 252.42934798 63.78260672 252.56856355 68 249 C92.27795969 224.84222823 97.00576153 174.97786941 103 143 C103.19754883 141.95859863 103.39509766 140.91719727 103.59863281 139.84423828 C104.17606668 136.79310043 104.74637869 133.74075558 105.3125 130.6875 C105.48418701 129.76791504 105.65587402 128.84833008 105.83276367 127.90087891 C105.98720947 127.05058105 106.14165527 126.2002832 106.30078125 125.32421875 C106.43653564 124.58260498 106.57229004 123.84099121 106.7121582 123.0769043 C107.09151974 120.68910439 107.09151974 120.68910439 107 117 C106.443125 117.65226562 105.88625 118.30453125 105.3125 118.9765625 C97.55409636 127.86203153 90.56948216 134.62199457 78.55859375 136.3515625 C69.35804909 136.89869974 62.76503569 132.74143297 55.9375 126.9375 C29.59564279 101.86958596 18.22526139 61.8941802 7.625 28.25 C7.41367432 27.5824469 7.20234863 26.9148938 6.98461914 26.22711182 C6.37172024 24.28344449 5.76658847 22.33753018 5.1640625 20.390625 C4.64513428 18.7204834 4.64513428 18.7204834 4.11572266 17.01660156 C2.55381973 11.39375101 1.31222408 5.68630434 0 0 Z " fill="#BC8066" transform="translate(40,12)"/>
<path d="M0 0 C4.30510268 0.81648499 5.6072211 1.81738981 8.20703125 5.21875 C11.96182224 11.75601696 14.32478179 19.2776543 15.625 26.6875 C15.92792969 25.6975 16.23085937 24.7075 16.54296875 23.6875 C21.97225762 6.40652415 21.97225762 6.40652415 28.625 0.6875 C31.9375 0 31.9375 0 35.625 0.6875 C47.54720056 10.56012129 51.12974236 35.08810979 52.98535156 49.48291016 C53.42471622 54.21719779 53.61192289 58.93396894 53.625 63.6875 C50.985 63.6875 48.345 63.6875 45.625 63.6875 C45.52477539 62.77162109 45.42455078 61.85574219 45.32128906 60.91210938 C44.93481024 57.42941814 44.53838571 53.94813095 44.13574219 50.46728516 C43.96523993 48.9765079 43.79841951 47.48530375 43.63574219 45.99365234 C42.20283776 32.89407549 40.4742481 18.62971487 34.625 6.6875 C32.58840754 5.95390034 32.58840754 5.95390034 30.625 5.6875 C27.76222876 11.59818815 25.73319134 17.2392144 24.5 23.6875 C24.33532227 24.5218457 24.17064453 25.35619141 24.00097656 26.21582031 C21.96312959 37.26861807 21.32283496 48.48541256 20.625 59.6875 C17.325 59.6875 14.025 59.6875 10.625 59.6875 C10.58536133 58.9440332 10.54572266 58.20056641 10.50488281 57.43457031 C9.48232417 38.77144926 9.48232417 38.77144926 6.6875 20.3125 C6.52991211 19.51875977 6.37232422 18.72501953 6.20996094 17.90722656 C5.24249436 13.45377819 3.8624245 9.70339012 1.625 5.6875 C-0.31946506 5.91041864 -0.31946506 5.91041864 -2.375 6.6875 C-7.14785775 13.12490953 -8.04442763 22.48252542 -9.5 30.125 C-9.76117986 31.46045912 -10.02241067 32.79590827 -10.28369141 34.13134766 C-12.17327509 43.93980526 -13.59248255 53.73064003 -14.375 63.6875 C-17.015 63.6875 -19.655 63.6875 -22.375 63.6875 C-23.75495879 44.82806325 -18.12046844 20.40721341 -7.375 4.6875 C-4.78306297 1.72601948 -3.93541275 0.80165815 0 0 Z " fill="#B87E66" transform="translate(216.375,208.3125)"/>
<path d="M0 0 C0.33 0 0.66 0 1 0 C1 8.91 1 17.82 1 27 C-7.91 27 -16.82 27 -26 27 C-24.68 26.34 -23.36 25.68 -22 25 C-11.36153741 19.40481574 -4.99653325 13.89995129 -0.625 2.375 C-0.315625 1.199375 -0.315625 1.199375 0 0 Z " fill="#000000" transform="translate(327,305)"/>
<path d="M0 0 C0.66 1.32 1.32 2.64 2 4 C7.59518426 14.63846259 13.10004871 21.00346675 24.625 25.375 C25.800625 25.684375 25.800625 25.684375 27 26 C27 26.33 27 26.66 27 27 C18.09 27 9.18 27 0 27 C0 18.09 0 9.18 0 0 Z " fill="#000000" transform="translate(0,305)"/>
<path d="M0 0 C8.91 0 17.82 0 27 0 C27 8.91 27 17.82 27 27 C26.34 25.68 25.68 24.36 25 23 C19.40481574 12.36153741 13.89995129 5.99653325 2.375 1.625 C1.59125 1.41875 0.8075 1.2125 0 1 C0 0.67 0 0.34 0 0 Z " fill="#000000" transform="translate(301,0)"/>
<path d="M0 0 C8.91 0 17.82 0 27 0 C25.02 0.99 25.02 0.99 23 2 C12.36153741 7.59518426 5.99653325 13.10004871 1.625 24.625 C1.41875 25.40875 1.2125 26.1925 1 27 C0.67 27 0.34 27 0 27 C0 18.09 0 9.18 0 0 Z " fill="#000000" transform="translate(0,0)"/>
</svg>
